<svg xmlns="http://www.w3.org/2000/svg" viewBox="0 0 512 512" fill="none">
  <!-- A-Identity ribbon monogram, primary gradient mark. Master: src/components/LogoV2.tsx -->
  <defs>
    <linearGradient id="g-a" x1="200" y1="20" x2="120" y2="472" gradientUnits="userSpaceOnUse">
      <stop offset="0" stop-color="#24398E"/><stop offset="1" stop-color="#081B4E"/>
    </linearGradient>
    <linearGradient id="g-i" x1="410" y1="56" x2="400" y2="472" gradientUnits="userSpaceOnUse">
      <stop offset="0" stop-color="#8F7BF8"/><stop offset="0.55" stop-color="#6E54F6"/><stop offset="1" stop-color="#24398E"/>
    </linearGradient>
    <linearGradient id="g-r" x1="110" y1="320" x2="466" y2="330" gradientUnits="userSpaceOnUse">
      <stop offset="0" stop-color="#9F8BF7"/><stop offset="0.45" stop-color="#C9BBFF"/><stop offset="1" stop-color="#8A75F2"/>
    </linearGradient>
    <linearGradient id="g-t" x1="450" y1="356" x2="450" y2="436" gradientUnits="userSpaceOnUse">
      <stop offset="0" stop-color="#4A39BD"/><stop offset="1" stop-color="#6E54F6"/>
    </linearGradient>
  </defs>
  <path d="M 368 472 L 381 70 Q 383 56 397 56 L 429 56 Q 443 56 442 70 L 430 472 Z" fill="url(#g-i)"/>
  <path d="M 40 472 L 168 48 Q 200 20 232 48 L 344 472 L 282 472 L 200 190 L 102 472 Z" fill="url(#g-a)"/>
  <path d="M 440 362 L 466 352 L 458 430 Q 446 441 436 428 Z" fill="url(#g-t)"/>
  <path d="M 108 290 C 240 276 340 282 466 306 L 440 362 C 330 340 240 336 108 352 Z" fill="url(#g-r)"/>
  <path d="M 98 280 L 168.7 280 L 134 380 L 67.8 380 Z" fill="url(#g-a)"/>
</svg>
